<?xml version="1.0" encoding="UTF-8"?> <svg xmlns="http://www.w3.org/2000/svg" xmlns:xlink="http://www.w3.org/1999/xlink" viewBox="0 0 211.09 136.94"><defs><style>.cls-1{fill:none;}.cls-2{fill:#fff;}.cls-3{clip-path:url(#clip-path);}.cls-4{fill:#ebebeb;}.cls-5{fill:#f9c518;}.cls-6{fill:#d39d18;}.cls-7{fill:#edb518;}.cls-8{fill:#07145a;}</style><clipPath id="clip-path"><rect class="cls-1" x="34.09" y="8.59" width="142.91" height="106.35"></rect></clipPath></defs><title>4 yard skip1</title><g id="Layer_2" data-name="Layer 2"><g id="Layer_1-2" data-name="Layer 1"><rect class="cls-2" width="211.09" height="136.94"></rect><g class="cls-3"><g id="Mask_Group_1" data-name="Mask Group 1"><g id="Layer_2-2" data-name="Layer 2"><g id="_ÎÓÈ_1" data-name=" ÎÓÈ 1"><path id="Path_1" data-name="Path 1" class="cls-4" d="M161.82,114.54h-113a2,2,0,0,1-2-2h0a2,2,0,0,1,2-2h113a2,2,0,0,1,2,2h0A2,2,0,0,1,161.82,114.54Z"></path><path id="Path_2" data-name="Path 2" class="cls-5" d="M154,110.58H56.67L36.3,55.13H174.39Z"></path><path id="Path_3" data-name="Path 3" class="cls-6" d="M174.39,55.13H36.3L38.44,61H172.25Z"></path><path id="Path_4" data-name="Path 4" class="cls-7" d="M174.39,58.88H36.3l-2.21-7.51h142.5Z"></path><path id="Path_5" data-name="Path 5" class="cls-8" d="M85,89.09l6.78-17.21H96v16.3h2.14v2.76H96V95.1H92.67V90.94H85Zm7.71-.91V84.84L93,76.05h-.33l-4,12.19Z"></path><path id="Path_6" data-name="Path 6" class="cls-8" d="M101.22,91.23l-2.34-7.75h1.77L102.07,89h.09l1.4-5.56h1.76L103,91.23V95.1H101.3Z"></path><path id="Path_7" data-name="Path 7" class="cls-8" d="M107.63,83.48h2l2.16,11.62H110L109.71,93h-2.13l-.3,2.08h-1.79Zm1.88,8.22-.82-5.79h0l-1,5.79Z"></path><path id="Path_8" data-name="Path 8" class="cls-8" d="M112.93,83.48h2.63a4,4,0,0,1,.77.14,2.92,2.92,0,0,1,.75.32,1.88,1.88,0,0,1,.65.57,3.18,3.18,0,0,1,.46.92,4.38,4.38,0,0,1,.16,1.35v.29a5,5,0,0,1-.38,2.16,2.42,2.42,0,0,1-1.12,1.2l1.87,4.64h-1.87l-1.54-4.34h-.66v4.34H113Zm2,6a2.51,2.51,0,0,0,.77-.1,1,1,0,0,0,.51-.35,1.34,1.34,0,0,0,.29-.64,4,4,0,0,0,0-1v-.93a3.3,3.3,0,0,0,0-.77,1.26,1.26,0,0,0-.29-.53,1.34,1.34,0,0,0-.49-.32,2.81,2.81,0,0,0-.81-.1h-.27v4.72Z"></path><path id="Path_9" data-name="Path 9" class="cls-8" d="M120.05,83.48h2.69a4.17,4.17,0,0,1,.87.15,3.31,3.31,0,0,1,.81.37,2.36,2.36,0,0,1,.65.72,3.5,3.5,0,0,1,.45,1.16,7.23,7.23,0,0,1,.17,1.67V90.9a7.23,7.23,0,0,1-.17,1.67,3.5,3.5,0,0,1-.45,1.16,2.63,2.63,0,0,1-.65.72,3,3,0,0,1-.81.36,3.17,3.17,0,0,1-.87.15h-2.69Zm2.21,10.4a2.16,2.16,0,0,0,.79-.14.92.92,0,0,0,.48-.41,2,2,0,0,0,.25-.85,10,10,0,0,0,0-1.34V87.52a10,10,0,0,0,0-1.34,2,2,0,0,0-.25-.86.92.92,0,0,0-.48-.41,2.16,2.16,0,0,0-.79-.14h-.45v9.11Z"></path><rect id="Rectangle_17" data-name="Rectangle 17" class="cls-1" x="67.68" y="9.11" width="75.31" height="105.44"></rect></g></g></g></g></g></g></svg> 